<svg width="20" height="19" viewBox="0 0 20 19" fill="none" xmlns="http://www.w3.org/2000/svg">
<g clip-path="url(#clip0_61385_198)">
<path d="M9.88112 0.762634C4.42482 0.762634 0 4.77356 0 9.7214C0 13.6788 2.83129 17.0361 6.75953 18.2217C7.25365 18.3043 7.434 18.0277 7.434 17.7901C7.434 17.5771 7.42535 17.0138 7.42041 16.2665C4.67188 16.8074 4.09129 15.0652 4.09129 15.0652C3.64288 14.0301 2.99435 13.7546 2.99435 13.7546C2.09629 13.1992 3.06106 13.2103 3.06106 13.2103C4.053 13.2739 4.57429 14.1339 4.57429 14.1339C5.45629 15.5024 6.888 15.1076 7.45129 14.8778C7.54024 14.2989 7.79594 13.9041 8.07882 13.6799C5.88494 13.4535 3.57741 12.685 3.57741 9.25294C3.57741 8.27475 3.96282 7.47502 4.59529 6.84817C4.49276 6.62175 4.15429 5.71048 4.69165 4.47798C4.69165 4.47798 5.52176 4.23706 7.40929 5.39594C8.19741 5.1974 9.04235 5.09813 9.88359 5.09479C10.7224 5.09925 11.5685 5.1974 12.3579 5.39706C14.2442 4.23817 15.0731 4.4791 15.0731 4.4791C15.6116 5.71271 15.2732 6.62286 15.1719 6.84929C15.8056 7.47613 16.1873 8.27586 16.1873 9.25406C16.1873 12.695 13.8773 13.4524 11.676 13.6743C12.0305 13.9509 12.3468 14.4975 12.3468 15.3329C12.3468 16.5308 12.3344 17.4967 12.3344 17.7901C12.3344 18.0299 12.5123 18.3087 13.0138 18.2206C16.9359 17.0339 19.7647 13.6777 19.7647 9.7214C19.7647 4.77356 15.3399 0.762634 9.88112 0.762634Z" fill="#C4C4CC"/>
</g>
<defs>
<clipPath id="clip0_61385_198">
<rect width="19.7647" height="17.8462" fill="white" transform="translate(0 0.576904)"/>
</clipPath>
</defs>
</svg>
